<svg xmlns="http://www.w3.org/2000/svg" width="512" height="512" viewBox="-31 -31 512 512"><path fill="#F3D36E" d="M299.68 25H150.32c-17.924 0-32.468 15.432-32.468 34.48V390.52c0 19.05 14.544 34.48 32.47 34.48H299.68c17.925 0 32.47-15.43 32.47-34.48V59.48C332.147 40.433 317.603 25 299.68 25zm22.59 365.52c0 13.565-10.135 24.603-22.59 24.603H150.32c-12.456 0-22.59-11.036-22.59-24.604V59.48c0-13.567 10.135-24.604 22.59-24.604h149.36c12.456 0 22.592 11.037 22.592 24.605v331.04z"/><path fill="#F3D36E" d="M299.68 37.346H150.32c-11.085 0-20.123 9.926-20.123 22.136V390.52c0 12.21 9.037 22.135 20.124 22.135h149.36c11.084 0 20.123-9.926 20.123-22.136V59.48c0-12.21-9.036-22.134-20.123-22.134zm10.097 323.05H140.222V89.605h169.555v270.79z"/></svg>