<svg xmlns="http://www.w3.org/2000/svg" width="512" height="512" viewBox="0 0 512 512"><text transform="translate(168.783 543.81)" fill="#FF0" font-family="'Verdana-Bold'" font-size="20">simpleicon.com</text><text transform="translate(9.193 567.81)" fill="#FF0" font-family="'Verdana'" font-size="20">Collection Of Flat Icon, Symbols And Glyph Icons</text><path fill="#F3D36E" d="M454.426 392.582c-5.438-16.32-15.298-32.782-29.84-42.36-27.978-18.573-60.577-28.48-92.098-39.087-7.604-2.664-15.33-5.568-22.28-9.7-6.203-3.686-8.532-11.245-9.973-17.886-.637-3.514-1.026-7.117-1.23-10.66 22.858-31.27 38.02-82.298 38.02-124.14 0-65.297-36.895-83.494-82.4-83.494-45.516 0-82.404 18.17-82.404 83.468 0 43.338 16.257 96.5 40.49 127.382-.22 2.438-.51 4.877-.95 7.304-1.443 6.64-3.77 14.06-9.97 17.744-6.956 4.133-14.68 6.756-22.286 9.42-31.52 10.605-64.12 19.957-92.09 38.53-14.55 9.58-24.404 27.157-29.84 43.478-5.596 16.938-7.885 37.917-7.54 54.917h411.933c.347-17-1.946-37.98-7.54-54.92z"/></svg>